<svg width="45" height="45" viewBox="0 0 45 45" fill="none" xmlns="http://www.w3.org/2000/svg">
<path d="M42 38.5L42 5.5C42 4.11929 40.8807 3 39.5 3C38.1193 3 37 4.11929 37 5.5L37 38.5C37 39.8807 38.1193 41 39.5 41C40.8807 41 42 39.8807 42 38.5Z" fill="white" stroke="black" stroke-linecap="round"/>
<path d="M8 38.5L8 5.5C8 4.11929 6.88071 3 5.5 3C4.11929 3 3 4.11929 3 5.5L3 38.5C3 39.8807 4.11929 41 5.5 41C6.88071 41 8 39.8807 8 38.5Z" fill="white" stroke="black" stroke-linecap="round"/>
<path d="M35.1732 34.5178L35.171 34.5046L35.1681 34.4915C35.1109 34.2343 35.0396 33.9777 34.9543 33.7219L34.8643 33.4519L34.8418 33.3844L34.8362 33.3675L34.8348 33.3633L34.8345 33.3622L34.8344 33.362L34.8344 33.3619L34.8343 33.3619L34.36 33.52L34.8343 33.3619L34.8293 33.3467L34.8232 33.3318L26.5058 12.8581L26.2713 12.2327C26.2078 12.0444 26.1274 11.8672 26.0287 11.7028C25.976 11.6149 25.9249 11.4972 25.8808 11.3426L25.8747 11.3213L25.8667 11.3005C25.7249 10.9319 25.5661 10.5984 25.3887 10.3028L25.3826 10.2925L25.376 10.2826C25.1585 9.95643 24.9522 9.66723 24.7572 9.41625C24.5376 9.12503 24.2393 8.90498 23.8869 8.74482L23.8679 8.73616L23.8482 8.72913C23.4082 8.572 22.9088 8.5 22.36 8.5C21.8344 8.5 21.3492 8.57294 20.9118 8.72913L20.8921 8.73616L20.8731 8.74482C20.5219 8.90444 20.2244 9.12352 20.0051 9.41327L19.6896 9.80765C19.5639 9.96479 19.4547 10.1356 19.3616 10.319C19.1881 10.6106 19.0325 10.9386 18.8933 11.3005L18.8853 11.3213L18.8792 11.3426C18.8351 11.4972 18.784 11.6149 18.7313 11.7027C18.6326 11.8672 18.5522 12.0444 18.4887 12.2327L18.2542 12.8581L9.93677 33.3318L9.93073 33.3467L9.92566 33.3619L10.4 33.52L9.92566 33.3619L9.92565 33.3619L9.92563 33.362L9.92554 33.3622L9.92519 33.3633L9.92378 33.3675L9.91816 33.3844L9.89566 33.4519L9.80566 33.7219C9.72038 33.9777 9.64907 34.2343 9.59191 34.4915L9.589 34.5046L9.5868 34.5178L9.5068 34.9978L9.5 35.0386V35.08V35.0808V35.0816V35.0823V35.0831V35.0839V35.0847V35.0855V35.0863V35.0871V35.0878V35.0886V35.0894V35.0902V35.091V35.0918V35.0926V35.0934V35.0942V35.095V35.0957V35.0965V35.0973V35.0981V35.0989V35.0997V35.1005V35.1013V35.1021V35.1029V35.1037V35.1045V35.1053V35.1061V35.1069V35.1077V35.1085V35.1093V35.1101V35.1109V35.1117V35.1125V35.1133V35.1142V35.115V35.1158V35.1166V35.1174V35.1182V35.119V35.1198V35.1206V35.1214V35.1223V35.1231V35.1239V35.1247V35.1255V35.1263V35.1272V35.128V35.1288V35.1296V35.1304V35.1312V35.1321V35.1329V35.1337V35.1345V35.1354V35.1362V35.137V35.1378V35.1387V35.1395V35.1403V35.1411V35.142V35.1428V35.1436V35.1445V35.1453V35.1461V35.1469V35.1478V35.1486V35.1494V35.1503V35.1511V35.1519V35.1528V35.1536V35.1545V35.1553V35.1561V35.157V35.1578V35.1587V35.1595V35.1603V35.1612V35.162V35.1629V35.1637V35.1645V35.1654V35.1662V35.1671V35.1679V35.1688V35.1696V35.1705V35.1713V35.1722V35.173V35.1739V35.1747V35.1756V35.1764V35.1773V35.1781V35.179V35.1799V35.1807V35.1816V35.1824V35.1833V35.1841V35.185V35.1859V35.1867V35.1876V35.1884V35.1893V35.1902V35.191V35.1919V35.1928V35.1936V35.1945V35.1954V35.1962V35.1971V35.198V35.1988V35.1997V35.2006V35.2014V35.2023V35.2032V35.2041V35.2049V35.2058V35.2067V35.2075V35.2084V35.2093V35.2102V35.2111V35.2119V35.2128V35.2137V35.2146V35.2155V35.2163V35.2172V35.2181V35.219V35.2199V35.2207V35.2216V35.2225V35.2234V35.2243V35.2252V35.2261V35.227V35.2278V35.2287V35.2296V35.2305V35.2314V35.2323V35.2332V35.2341V35.235V35.2359V35.2368V35.2377V35.2386V35.2395V35.2404V35.2412V35.2421V35.243V35.2439V35.2448V35.2457V35.2467V35.2476V35.2485V35.2494V35.2503V35.2512V35.2521V35.253V35.2539V35.2548V35.2557V35.2566V35.2575V35.2584V35.2593V35.2603V35.2612V35.2621V35.263V35.2639V35.2648V35.2657V35.2666V35.2676V35.2685V35.2694V35.2703V35.2712V35.2721V35.2731V35.274V35.2749V35.2758V35.2768V35.2777V35.2786V35.2795V35.2804V35.2814V35.2823V35.2832V35.2842V35.2851V35.286V35.2869V35.2879V35.2888V35.2897V35.2907V35.2916V35.2925V35.2935V35.2944V35.2953V35.2963V35.2972V35.2981V35.2991V35.3V35.3009V35.3019V35.3028V35.3038V35.3047V35.3056V35.3066V35.3075V35.3085V35.3094V35.3103V35.3113V35.3122V35.3132V35.3141V35.3151V35.316V35.317V35.3179V35.3189V35.3198V35.3208V35.3217V35.3227V35.3236V35.3246V35.3255V35.3265V35.3274V35.3284V35.3294V35.3303V35.3313V35.3322V35.3332V35.3341V35.3351V35.3361V35.337V35.338V35.339V35.3399V35.3409V35.3418V35.3428V35.3438V35.3447V35.3457V35.3467V35.3476V35.3486V35.3496V35.3505V35.3515V35.3525V35.3535V35.3544V35.3554V35.3564V35.3573V35.3583V35.3593V35.3603V35.3612V35.3622V35.3632V35.3642V35.3652V35.3661V35.3671V35.3681V35.3691V35.3701V35.371V35.372V35.373V35.374V35.375V35.376V35.377V35.3779V35.3789V35.3799V35.3809V35.3819V35.3829V35.3839V35.3849V35.3859V35.3868V35.3878V35.3888V35.3898V35.3908V35.3918V35.3928V35.3938V35.3948V35.3958V35.3968V35.3978V35.3988V35.3998V35.4008V35.4018V35.4028V35.4038V35.4048V35.4058V35.4068V35.4078V35.4088V35.4098V35.4108V35.4118V35.4129V35.4139V35.4149V35.4159V35.4169V35.4179V35.4189V35.4199V35.4209V35.422V35.423V35.424V35.425V35.426V35.427V35.4281V35.4291V35.4301V35.4311V35.4321V35.4331V35.4342V35.4352V35.4362V35.4372V35.4383V35.4393V35.4403V35.4413V35.4424V35.4434V35.4444V35.4454V35.4465V35.4475V35.4485V35.4496V35.4506V35.4516V35.4526V35.4537V35.4547V35.4557V35.4568V35.4578V35.4588V35.4599V35.4609V35.462V35.463V35.464V35.4651V35.4661V35.4672V35.4682V35.4692V35.4703V35.4713V35.4724V35.4734V35.4745V35.4755V35.4765V35.4776V35.4786V35.4797V35.4807V35.4818V35.4828V35.4839V35.4849V35.486V35.487V35.4881V35.4891V35.4902V35.4913V35.4923V35.4934V35.4944V35.4955V35.4965V35.4976V35.4986V35.4997V35.5008V35.5018V35.5029V35.504V35.505V35.5061V35.5071V35.5082V35.5093V35.5103V35.5114V35.5125V35.5135V35.5146V35.5157V35.5167V35.5178V35.5189V35.52V35.521V35.5221V35.5232V35.5242V35.5253V35.5264V35.5275V35.5285V35.5296V35.5307V35.5318V35.5328V35.5339V35.535V35.5361V35.5372V35.5382V35.5393V35.5404V35.5415V35.5426V35.5437V35.5447V35.5458V35.5469V35.548V35.5491V35.5502V35.5513V35.5524V35.5534V35.5545V35.5556V35.5567V35.5578V35.5589V35.56C9.5 35.9786 9.62254 36.3668 9.86041 36.7124C9.96392 36.8816 10.0946 37.0417 10.2464 37.1936L10.266 37.2131L10.2877 37.2304C10.4556 37.3648 10.6477 37.4765 10.8585 37.5689C11.6131 37.9855 12.4225 38.1362 13.2707 38.015L13.3045 38.0101L13.3374 38.0008C13.7575 37.8807 14.1383 37.6871 14.4756 37.42H14.5271L14.6736 37.2736C14.7274 37.2197 14.77 37.16 14.8038 37.1033L14.8336 37.0736L14.8909 37.0162L14.8927 37.0127L14.8962 37.0109L14.9536 36.9536C15.0974 36.8097 15.2213 36.6716 15.32 36.54L15.3355 36.5194L15.3487 36.4972C15.434 36.3552 15.5076 36.2108 15.5687 36.0639C15.641 35.9421 15.7045 35.8277 15.7583 35.7213L15.9887 35.3372L15.9986 35.3208L16.0072 35.3036C16.0606 35.1968 16.1066 35.0931 16.1418 34.9944L16.2872 34.7036C16.3599 34.5582 16.4063 34.4015 16.4174 34.2366C16.4342 34.1815 16.4571 34.1239 16.4872 34.0636L16.4938 34.0505L16.4996 34.037L17.2077 32.3847C18.9369 32.4082 20.6543 32.42 22.36 32.42V32.4201L22.3672 32.4199C24.095 32.3949 25.8227 32.3816 27.5504 32.3801L28.2362 33.9805C28.2743 34.194 28.3474 34.4166 28.4465 34.6452C28.4821 34.7747 28.5314 34.9009 28.5928 35.0236L28.6067 35.0514L28.624 35.0773C28.6635 35.1366 28.7066 35.2113 28.7528 35.3036L28.7614 35.3208L28.7713 35.3372C28.8387 35.4496 28.8931 35.5591 28.9358 35.6657L28.9603 35.7271L29 35.78C29.0517 35.849 29.0975 35.93 29.1358 36.0257L29.1506 36.0629L29.1713 36.0972L29.4113 36.4972L29.4245 36.5194L29.44 36.54C29.5387 36.6716 29.6626 36.8097 29.8064 36.9536L29.8638 37.0109L29.8673 37.0127L29.8691 37.0162L29.9264 37.0736L29.9562 37.1033C29.99 37.16 30.0326 37.2197 30.0864 37.2736L30.2329 37.42H30.2844C30.6217 37.6871 31.0025 37.8807 31.4226 38.0008L31.4555 38.0101L31.4893 38.015C32.3375 38.1362 33.1469 37.9855 33.9015 37.5689C34.1123 37.4765 34.3044 37.3648 34.4723 37.2304L34.494 37.2131L34.5136 37.1936C34.6654 37.0417 34.7961 36.8816 34.8996 36.7123C35.1375 36.3668 35.26 35.9786 35.26 35.56C35.26 35.3713 35.2479 35.1938 35.2197 35.032C35.2172 34.8601 35.2017 34.6887 35.1732 34.5178ZM23.6589 22.5934L23.6587 22.5934L23.6643 22.6058C24.0363 23.4294 24.3949 24.2265 24.7404 24.997L25.1752 26.06H19.5848L20.0196 24.997C20.3661 24.224 20.7123 23.4249 21.0585 22.5996C21.4299 21.7772 21.8147 20.9414 22.2127 20.0922L22.2128 20.0923L22.2169 20.0831L22.38 19.7161L22.5431 20.0831L22.543 20.0831L22.5473 20.0922C22.9445 20.9396 23.315 21.7733 23.6589 22.5934Z" fill="white" stroke="black"/>
</svg>
