<svg width="45" height="45" viewBox="0 0 45 45" fill="none" xmlns="http://www.w3.org/2000/svg">
<path d="M6 5L6 39" stroke="white" stroke-width="5" stroke-linecap="round"/>
<path d="M39 5L39 39" stroke="white" stroke-width="5" stroke-linecap="round"/>
<path d="M34.68 34.6C34.7067 34.76 34.72 34.92 34.72 35.08C34.7467 35.2133 34.76 35.3733 34.76 35.56C34.76 35.88 34.6667 36.1733 34.48 36.44C34.4 36.5733 34.2933 36.7067 34.16 36.84C34.0267 36.9467 33.8667 37.04 33.68 37.12C33.0133 37.4933 32.3067 37.6267 31.56 37.52C31.1867 37.4133 30.8533 37.24 30.56 37C30.5067 36.9467 30.4667 36.92 30.44 36.92C30.4133 36.8933 30.3867 36.8533 30.36 36.8C30.3333 36.7733 30.3067 36.7467 30.28 36.72C30.2533 36.6667 30.2133 36.6267 30.16 36.6C30.0267 36.4667 29.92 36.3467 29.84 36.24C29.76 36.1067 29.68 35.9733 29.6 35.84C29.5467 35.7067 29.48 35.5867 29.4 35.48C29.3467 35.3467 29.28 35.2133 29.2 35.08C29.1467 34.9733 29.0933 34.88 29.04 34.8C28.9867 34.6933 28.9467 34.5867 28.92 34.48C28.8133 34.24 28.7467 34.0267 28.72 33.84L27.88 31.88C26.04 31.88 24.2 31.8933 22.36 31.92C20.5467 31.92 18.72 31.9067 16.88 31.88L16.04 33.84C15.9867 33.9467 15.9467 34.0533 15.92 34.16C15.92 34.2667 15.8933 34.3733 15.84 34.48C15.7867 34.5867 15.7333 34.6933 15.68 34.8C15.6533 34.88 15.6133 34.9733 15.56 35.08C15.48 35.2133 15.4 35.3467 15.32 35.48C15.2667 35.5867 15.2 35.7067 15.12 35.84C15.0667 35.9733 15 36.1067 14.92 36.24C14.84 36.3467 14.7333 36.4667 14.6 36.6C14.5467 36.6267 14.5067 36.6667 14.48 36.72C14.4533 36.7467 14.4267 36.7733 14.4 36.8C14.3733 36.8533 14.3467 36.8933 14.32 36.92C14.2933 36.92 14.2533 36.9467 14.2 37C13.9067 37.24 13.5733 37.4133 13.2 37.52C12.4533 37.6267 11.7467 37.4933 11.08 37.12C10.8933 37.04 10.7333 36.9467 10.6 36.84C10.4667 36.7067 10.36 36.5733 10.28 36.44C10.0933 36.1733 10 35.88 10 35.56C10 35.3733 10 35.2133 10 35.08C10.0267 34.92 10.0533 34.76 10.08 34.6C10.1333 34.36 10.2 34.12 10.28 33.88C10.36 33.64 10.4 33.52 10.4 33.52L18.72 13.04L18.96 12.4C19.0133 12.24 19.08 12.0933 19.16 11.96C19.24 11.8267 19.3067 11.6667 19.36 11.48C19.4933 11.1333 19.64 10.8267 19.8 10.56C19.88 10.4 19.9733 10.2533 20.08 10.12C20.1867 9.98666 20.2933 9.85333 20.4 9.72C20.56 9.50667 20.7867 9.33333 21.08 9.2C21.4533 9.06667 21.88 9 22.36 9C22.8667 9 23.3067 9.06667 23.68 9.2C23.9733 9.33333 24.2 9.50667 24.36 9.72C24.5467 9.96 24.7467 10.24 24.96 10.56C25.12 10.8267 25.2667 11.1333 25.4 11.48C25.4533 11.6667 25.52 11.8267 25.6 11.96C25.68 12.0933 25.7467 12.24 25.8 12.4L26.04 13.04L34.36 33.52C34.36 33.52 34.4 33.64 34.48 33.88C34.56 34.12 34.6267 34.36 34.68 34.6ZM25.2 24.8C24.8533 24.0267 24.4933 23.2267 24.12 22.4C23.7733 21.5733 23.4 20.7333 23 19.88C22.8933 19.64 22.7867 19.4 22.68 19.16C22.5733 18.8933 22.4667 18.64 22.36 18.4C22.28 18.64 22.1867 18.8933 22.08 19.16C21.9733 19.4 21.8667 19.64 21.76 19.88C21.36 20.7333 20.9733 21.5733 20.6 22.4C20.2533 23.2267 19.9067 24.0267 19.56 24.8L18.84 26.56H25.92L25.2 24.8Z" fill="white"/>
</svg>
